<?xml version="1.0" encoding="UTF-8"?>
<svg width="120px" height="40px" viewBox="0 0 120 40" version="1.1" xmlns="http://www.w3.org/2000/svg" xmlns:xlink="http://www.w3.org/1999/xlink">
    <!-- Generator: Sketch 52.6 (67491) - http://www.bohemiancoding.com/sketch -->
    <title>Group 2</title>
    <desc>Created with Sketch.</desc>
    <g id="Page-1" stroke="none" stroke-width="1" fill="none" fill-rule="evenodd">
        <g id="Group-2">
            <rect id="Rectangle" fill="#D8D8D8" x="0" y="0" width="120" height="40"></rect>
            <g id="logo-white" transform="translate(10.000000, 6.000000)">
                <path d="M39.3012048,5.3939759 C39.3012048,4.77951807 38.9518072,4.33373494 38.413253,4.33373494 C37.8771084,4.33373494 37.5253012,4.77951807 37.5253012,5.3939759 C37.5253012,6.00240964 37.8771084,6.46144578 38.413253,6.46144578 C38.9506024,6.46144578 39.3024096,6.00361446 39.3024096,5.3939759 L39.3012048,5.3939759 Z M36.6036145,5.3939759 C36.6036145,4.31204819 37.3746988,3.54096386 38.4228916,3.54096386 C39.4590361,3.54096386 40.2421687,4.31204819 40.2421687,5.38433735 C40.2421687,6.4686747 39.4710843,7.23975904 38.4349398,7.23975904 C37.386747,7.23975904 36.6277108,6.4686747 36.6277108,5.37228916 L36.6036145,5.3939759 Z M40.953012,5.37228916 C40.953012,4.28795181 41.6879518,3.51686747 42.7240964,3.51686747 C43.2180723,3.51686747 43.6879518,3.66144578 44.046988,4.01084337 L43.4807229,4.56506024 C43.2879518,4.38433735 43.0349398,4.28795181 42.7698795,4.3 C42.2313253,4.3 41.8783133,4.74578313 41.8783133,5.36024096 C41.8783133,5.9746988 42.2277108,6.43253012 42.7674699,6.43253012 C43.0686747,6.43253012 43.3096386,6.32409639 43.4783133,6.15542169 L44.0421687,6.71325301 C43.6903614,7.0626506 43.2180723,7.20722892 42.7240964,7.20722892 C41.6879518,7.20722892 40.953012,6.43614458 40.953012,5.35180723 L40.953012,5.37228916 Z M44.7951807,3.61445783 L45.6915663,3.61445783 L45.6915663,5 L46.0554217,5 L46.9108434,3.61445783 L47.9156627,3.61445783 L46.8337349,5.30120482 L48.1168675,7.1686747 L47.0783133,7.1686747 L46.126506,5.74698795 L45.6807229,5.74698795 L45.6807229,7.1686747 L44.7855422,7.1686747 L44.7951807,3.61445783 Z M51.1192771,5.3939759 C51.1192771,4.77951807 50.7698795,4.33373494 50.2277108,4.33373494 C49.6855422,4.33373494 49.3361446,4.77951807 49.3361446,5.3939759 C49.3361446,6.00240964 49.6855422,6.46144578 50.2156627,6.46144578 C50.7457831,6.46144578 51.1012048,6.00361446 51.1012048,5.3939759 L51.1192771,5.3939759 Z M48.4204819,5.3939759 C48.4204819,4.31204819 49.1795181,3.54096386 50.2277108,3.54096386 C51.2638554,3.54096386 52.0349398,4.31204819 52.0349398,5.38433735 C52.0349398,6.4686747 51.2638554,7.23975904 50.2156627,7.23975904 C49.1674699,7.23975904 48.4012048,6.4686747 48.4012048,5.37228916 L48.4204819,5.3939759 Z M54.6012048,6.41204819 C54.8783133,6.41204819 55.0590361,6.27108434 55.0590361,6.06626506 C55.0590361,5.86144578 54.8783133,5.71204819 54.6012048,5.71204819 L53.8060241,5.71204819 L53.8060241,6.42289157 L54.6012048,6.42289157 L54.6012048,6.41204819 Z M54.4204819,5.0746988 C54.6855422,5.0746988 54.9024096,4.96987952 54.9024096,4.72891566 C54.9024096,4.48795181 54.6975904,4.38192771 54.4325301,4.38192771 L53.8180723,4.38192771 L53.8180723,5.07590361 L54.4445783,5.07590361 L54.4204819,5.0746988 Z M52.9024096,7.17108434 L52.9024096,3.62409639 L54.4566265,3.62409639 C55.2759036,3.62409639 55.8180723,3.96144578 55.8180723,4.57831325 C55.8180723,4.90361446 55.6012048,5.16506024 55.3240964,5.27108434 L55.3240964,5.28554217 C55.7096386,5.41807229 55.9746988,5.71566265 55.9746988,6.11927711 C55.9746988,6.74578313 55.4566265,7.16746988 54.6373494,7.16746988 L52.9024096,7.16746988 L52.9024096,7.17108434 Z M56.6855422,5.3939759 C56.6855422,4.31204819 57.4204819,3.54096386 58.4566265,3.54096386 C58.9506024,3.54096386 59.4204819,3.68554217 59.7819277,4.03493976 L59.2156627,4.58915663 C59.0228916,4.40843373 58.7698795,4.31204819 58.5048193,4.31204819 C57.9686747,4.31204819 57.613253,4.75783133 57.613253,5.37228916 C57.613253,5.98674699 57.9686747,6.44457831 58.5048193,6.44457831 C58.8060241,6.44457831 59.046988,6.33614458 59.2156627,6.16746988 L59.7819277,6.72168675 C59.4325301,7.07108434 58.9566265,7.21566265 58.4626506,7.21566265 C57.4228916,7.21566265 56.6915663,6.44457831 56.6915663,5.35301205 L56.6855422,5.3939759 Z M60.5409639,3.62650602 L61.4457831,3.62650602 L61.4457831,5.01204819 L61.8144578,5.01204819 L62.6746988,3.62650602 L63.6783133,3.62650602 L62.5939759,5.30120482 L63.8759036,7.1686747 L62.839759,7.1686747 L61.8879518,5.74698795 L61.4457831,5.74698795 L61.4457831,7.1686747 L60.5542169,7.1686747 L60.5409639,3.62650602 Z M66.8879518,5.3939759 C66.8879518,4.77951807 66.5385542,4.33373494 66.0036145,4.33373494 C65.4614458,4.33373494 65.1120482,4.77951807 65.1120482,5.3939759 C65.1120482,6.00240964 65.4614458,6.46144578 65.9915663,6.46144578 C66.5216867,6.46144578 66.8759036,6.00361446 66.8759036,5.3939759 L66.8879518,5.3939759 Z M64.1891566,5.3939759 C64.1891566,4.31204819 64.9578313,3.54096386 66.0036145,3.54096386 C67.039759,3.54096386 67.8108434,4.31204819 67.8108434,5.38433735 C67.8108434,6.4686747 67.039759,7.23975904 65.9915663,7.23975904 C64.9433735,7.23975904 64.1746988,6.4686747 64.1746988,5.37228916 L64.1891566,5.3939759 Z M71.0409639,5.03975904 C70.9987952,4.60843373 70.7192771,4.27590361 70.2698795,4.27590361 C69.8168675,4.27590361 69.5301205,4.61325301 69.4662651,5.03493976 L71.0409639,5.03493976 L71.0409639,5.03975904 Z M68.5108434,5.40120482 C68.5108434,4.31204819 69.2578313,3.54096386 70.2614458,3.54096386 C71.2192771,3.54096386 71.986747,4.14337349 71.986747,5.49277108 L71.986747,5.67349398 L69.4686747,5.67349398 C69.5409639,6.20361446 69.9746988,6.44457831 70.4204819,6.44457831 C70.7216867,6.44457831 71.0228916,6.32409639 71.2277108,6.10722892 L71.7987952,6.67349398 C71.3975904,7.05903614 70.8951807,7.23975904 70.3168675,7.23975904 C69.3566265,7.23975904 68.4975904,6.55301205 68.4975904,5.38433735 L68.5108434,5.40120482 Z M31.8963855,15.473494 L29.0843373,15.473494 L29.0843373,11.9313253 L29.9795181,11.9313253 L29.9795181,14.7108434 L31.2385542,14.7108434 L31.2385542,11.9313253 L32.1349398,11.9313253 L32.1349398,14.7108434 L32.7277108,14.7108434 L32.7277108,16.373494 L31.8963855,16.373494 L31.8963855,15.473494 Z M35.8722892,13.3457831 C35.8361446,12.9144578 35.5590361,12.5819277 35.1012048,12.5819277 C34.6433735,12.5819277 34.3662651,12.9216867 34.3060241,13.3457831 L35.8807229,13.3457831 L35.8722892,13.3457831 Z M33.3421687,13.7072289 C33.3421687,12.6168675 34.0891566,11.8457831 35.0891566,11.8457831 C36.053012,11.8457831 36.8240964,12.4542169 36.8240964,13.8060241 L36.8240964,13.986747 L34.3060241,13.986747 C34.386747,14.5168675 34.8240964,14.7578313 35.2578313,14.7578313 C35.5674699,14.7578313 35.860241,14.6373494 36.0771084,14.4204819 L36.6506024,14.986747 C36.2493976,15.3722892 35.746988,15.553012 35.1686747,15.553012 C34.2084337,15.553012 33.3493976,14.8662651 33.3493976,13.6975904 L33.3421687,13.7072289 Z M37.7156627,11.9313253 L38.6072289,11.9313253 L38.6072289,13.2807229 L39.9445783,13.2807229 L39.9445783,11.9313253 L40.8445783,11.9313253 L40.8445783,15.473494 L39.953012,15.473494 L39.953012,14.0481928 L38.6156627,14.0481928 L38.6156627,15.4771084 L37.7120482,15.4771084 L37.7156627,11.9313253 Z M42.639759,12.6939759 L41.5674699,12.6939759 L41.5674699,11.9313253 L44.6879518,11.9313253 L44.4108434,12.6951807 L43.5433735,12.6951807 L43.5433735,15.4746988 L42.6518072,15.4746988 L42.639759,12.6939759 Z M47.1542169,14.7590361 C47.7,14.7590361 48.0819277,14.3072289 48.0819277,13.6927711 C48.0819277,13.0903614 47.7,12.6385542 47.1542169,12.6385542 C46.6120482,12.6385542 46.226506,13.0915663 46.226506,13.6927711 C46.226506,14.3072289 46.6120482,14.760241 47.1662651,14.760241 L47.1542169,14.7590361 Z M46.260241,16.7831325 L45.3686747,16.7831325 L45.3686747,11.9313253 L46.2698795,11.9313253 L46.2698795,12.3626506 L46.2819277,12.3626506 C46.4626506,12.1096386 46.8120482,11.8445783 47.3542169,11.8445783 C48.3,11.8445783 49.0096386,12.6156627 49.0096386,13.7 C49.0096386,14.7843373 48.2987952,15.5674699 47.3554217,15.5674699 C46.813253,15.5674699 46.4590361,15.3024096 46.2710843,15.0493976 L46.2554217,15.0493976 L46.2554217,16.7963855 L46.260241,16.7831325 Z M51.9108434,14.0879518 L51.9108434,13.946988 C51.7421687,13.9180723 51.5614458,13.9012048 51.3807229,13.8987952 C50.8506024,13.8987952 50.5855422,14.0879518 50.5855422,14.3783133 C50.5855422,14.626506 50.8144578,14.8457831 51.1638554,14.8457831 C51.5373494,14.8457831 51.9108434,14.5903614 51.9108434,14.086747 L51.9108434,14.0879518 Z M49.6819277,14.3855422 C49.6819277,13.8120482 50.139759,13.2325301 51.260241,13.2325301 C51.4361446,13.2325301 51.7012048,13.246988 51.9156627,13.2746988 L51.9156627,13.1759036 C51.9156627,12.8024096 51.6216867,12.6240964 51.2650602,12.6240964 C50.9192771,12.6240964 50.6024096,12.7518072 50.373494,12.9072289 L49.8313253,12.3698795 C50.2168675,12.0301205 50.7831325,11.8457831 51.2891566,11.8457831 C52.2168675,11.8457831 52.8072289,12.3554217 52.8072289,13.1903614 L52.8072289,15.4746988 L51.9277108,15.4746988 L51.9277108,15.1349398 L51.9156627,15.1349398 C51.6987952,15.4036145 51.3855422,15.560241 50.9337349,15.560241 C50.2108434,15.560241 49.6807229,15.0506024 49.6807229,14.3855422 L49.6686747,14.3855422 L49.6819277,14.3855422 Z M53.4771084,15.4746988 L53.4771084,14.739759 C53.5072289,14.7518072 53.5855422,14.7759036 53.6578313,14.7759036 C53.9518072,14.7759036 54.0373494,14.5277108 54.0951807,13.8626506 C54.1915663,12.6662651 54.2216867,11.9313253 54.2216867,11.9313253 L56.8361446,11.9313253 L56.8361446,15.473494 L55.939759,15.473494 L55.939759,12.6951807 L54.9879518,12.6951807 C54.9710843,12.9927711 54.9566265,13.4024096 54.9277108,13.7915663 C54.8433735,14.960241 54.6337349,15.5457831 53.8433735,15.5457831 C53.7108434,15.5433735 53.5903614,15.5192771 53.4698795,15.473494 L53.4771084,15.4746988 Z M59.3614458,14.746988 C59.6819277,14.746988 59.9542169,14.5421687 59.9542169,14.2445783 C59.9542169,13.939759 59.6843373,13.7349398 59.3638554,13.7349398 L58.7975904,13.7349398 L58.7975904,14.746988 L59.3638554,14.746988 L59.3614458,14.746988 Z M57.8915663,11.9313253 L58.786747,11.9313253 L58.786747,13.0060241 L59.4674699,13.0060241 C60.2506024,13.0060241 60.8722892,13.5084337 60.8722892,14.2445783 C60.8722892,14.9674699 60.2506024,15.473494 59.4698795,15.473494 L57.8915663,15.473494 L57.8915663,11.9313253 Z M61.6674699,11.9313253 L62.5590361,11.9313253 L62.5590361,13.2807229 L63.8915663,13.2807229 L63.8915663,11.9313253 L64.7891566,11.9313253 L64.7891566,15.473494 L63.8951807,15.473494 L63.8951807,14.0481928 L62.5578313,14.0481928 L62.5578313,15.4771084 L61.6638554,15.4771084 L61.6674699,11.9313253 Z M68.3626506,13.6987952 C68.3626506,13.0843373 68.013253,12.6385542 67.4771084,12.6385542 C66.9409639,12.6385542 66.5855422,13.0843373 66.5855422,13.6987952 C66.5855422,14.3084337 66.9349398,14.7674699 67.4650602,14.7674699 C67.9951807,14.7674699 68.3566265,14.3096386 68.3566265,13.7 L68.3626506,13.6987952 Z M65.6638554,13.6987952 C65.6638554,12.6168675 66.4313253,11.8457831 67.4771084,11.8457831 C68.513253,11.8457831 69.2843373,12.6168675 69.2843373,13.7012048 C69.2843373,14.7891566 68.513253,15.560241 67.4771084,15.560241 C66.4289157,15.560241 65.6698795,14.7891566 65.6698795,13.7 L65.6638554,13.6987952 Z M72.5144578,13.3457831 C72.4722892,12.9144578 72.1939759,12.5819277 71.7433735,12.5819277 C71.2927711,12.5819277 71.0036145,12.9216867 70.939759,13.3457831 L72.5060241,13.3457831 L72.5144578,13.3457831 Z M69.9843373,13.7072289 C69.9843373,12.6168675 70.7313253,11.8457831 71.7349398,11.8457831 C72.686747,11.8457831 73.4578313,12.4542169 73.4578313,13.8060241 L73.4578313,13.986747 L70.939759,13.986747 C71.0120482,14.5168675 71.4457831,14.7578313 71.8915663,14.7578313 C72.1927711,14.7578313 72.4939759,14.6373494 72.7108434,14.4204819 L73.2771084,14.986747 C72.8674699,15.3722892 72.373494,15.553012 71.7951807,15.553012 C70.8313253,15.553012 69.9759036,14.8662651 69.9759036,13.6975904 L69.9843373,13.7072289 Z M29.1048193,20.5445783 L29.9987952,20.5445783 L29.9987952,21.9301205 L30.3674699,21.9301205 L31.2349398,20.5445783 L32.2349398,20.5445783 L31.1626506,22.2192771 L32.4518072,24.086747 L31.4156627,24.086747 L30.4638554,22.6650602 L30.0180723,22.6650602 L30.0180723,24.086747 L29.126506,24.086747 L29.1048193,20.5445783 Z M35.5963855,22.313253 C35.5963855,21.6987952 35.246988,21.253012 34.7048193,21.253012 C34.1662651,21.253012 33.8156627,21.6987952 33.8156627,22.313253 C33.8156627,22.9204819 34.1650602,23.3807229 34.7036145,23.3807229 C35.2421687,23.3807229 35.5951807,22.9204819 35.5951807,22.3120482 L35.5963855,22.313253 Z M32.8975904,22.313253 C32.8975904,21.2289157 33.6590361,20.4578313 34.7048193,20.4578313 C35.7409639,20.4578313 36.5156627,21.2289157 36.5156627,22.313253 C36.5156627,23.4024096 35.7445783,24.173494 34.7060241,24.173494 C33.6650602,24.173494 32.8987952,23.4024096 32.8987952,22.3120482 L32.8975904,22.313253 Z M37.0421687,24.0879518 L37.0421687,23.353012 C37.0698795,23.3650602 37.1506024,23.3891566 37.2228916,23.3891566 C37.5120482,23.3891566 37.6,23.139759 37.6566265,22.473494 C37.7120482,21.8313253 37.7554217,21.1879518 37.7891566,20.5433735 L40.4036145,20.5433735 L40.4036145,24.0963855 L39.5072289,24.0963855 L39.5072289,21.313253 L38.5542169,21.313253 C38.5421687,21.6084337 38.5240964,22.0192771 38.4939759,22.4096386 C38.3975904,23.5746988 38.1927711,24.1614458 37.3975904,24.1614458 C37.2710843,24.1614458 37.1445783,24.1373494 37.0240964,24.0927711 L37.0421687,24.0879518 Z M42.9216867,23.3590361 C43.2433735,23.3590361 43.5156627,23.1542169 43.5156627,22.8566265 C43.5156627,22.5554217 43.2433735,22.3506024 42.9204819,22.3506024 L42.3542169,22.3506024 L42.3542169,23.3626506 L42.9204819,23.3626506 L42.9216867,23.3590361 Z M41.4518072,20.5445783 L42.3481928,20.5445783 L42.3481928,21.6192771 L43.0228916,21.6192771 C43.8060241,21.6192771 44.426506,22.1216867 44.426506,22.8566265 C44.426506,23.5795181 43.8,24.0975904 43.0168675,24.0975904 L41.4385542,24.0975904 L41.4385542,20.5554217 L41.4518072,20.5445783 Z M48.0421687,24.086747 L45.2228916,24.086747 L45.2228916,20.5421687 L46.1192771,20.5421687 L46.1192771,23.3253012 L47.3722892,23.3253012 L47.3722892,20.5421687 L48.2638554,20.5421687 L48.2638554,23.3253012 L48.860241,23.3253012 L48.860241,24.9879518 L48.0289157,24.9879518 L48.0421687,24.086747 Z M52.1662651,22.313253 C52.1662651,21.6987952 51.8168675,21.253012 51.2746988,21.253012 C50.7325301,21.253012 50.3831325,21.6987952 50.3831325,22.313253 C50.3831325,22.9204819 50.7325301,23.3807229 51.2626506,23.3807229 C51.7927711,23.3807229 52.1542169,22.9204819 52.1542169,22.3120482 L52.1662651,22.313253 Z M49.4554217,22.3120482 C49.4554217,21.2277108 50.2144578,20.4566265 51.2626506,20.4566265 C52.2987952,20.4566265 53.0771084,21.2277108 53.0771084,22.3120482 C53.0771084,23.3963855 52.3024096,24.1674699 51.2638554,24.1674699 C50.2156627,24.1674699 49.4506024,23.3963855 49.4506024,22.3 L49.4554217,22.3120482 Z M28.9156627,7.1686747 L30.5421687,2.21686747 L31.3084337,2.21686747 L32.5048193,5.73975904 L32.5168675,5.73975904 L33.7096386,2.21686747 L34.4686747,2.21686747 L36.0831325,7.1686747 L35.0349398,7.1686747 L34.046988,3.96385542 L34.0349398,3.96385542 L32.926506,7.1686747 L32.046988,7.1686747 L30.9385542,3.96385542 L30.9144578,3.96385542 L29.926506,7.1686747 L28.9156627,7.1686747 Z" id="Shape" fill="#FFFFFF" fill-rule="nonzero"></path>
                <g id="Group" fill="#E5262A">
                    <path d="M24.0566265,12.0698795 C24.0566265,5.57590361 18.6710843,0.308433735 12.0277108,0.308433735 C5.38554217,0.308433735 0,5.57590361 0,12.0698795 C0.00240963855,15.1987952 1.2686747,18.1927711 3.51084337,20.3746988 C3.69879518,20.5674699 3.95180723,20.6638554 4.21445783,20.6638554 C4.75301205,20.6638554 5.19036145,20.2421687 5.19036145,19.7120482 C5.18795181,19.4590361 5.07951807,19.2060241 4.88915663,19.0253012 C3.01566265,17.2060241 1.95783133,14.7 1.95542169,12.0855422 C1.95542169,6.66385542 6.47349398,2.24216867 12.0277108,2.24216867 C17.5819277,2.24216867 22.1,6.66385542 22.1,12.0975904 C22.1,14.8204819 20.9710843,17.2783133 19.1481928,19.0614458 L10.6385542,27.3493976 L12.0240964,28.7060241 L20.5385542,20.3807229 C22.7108434,18.253012 24.0566265,15.3156627 24.0566265,12.0710843" id="Path"></path>
                    <polyline id="Path" points="17.5578313 14.3325301 14.5578313 6.91084337 12.0277108 11.2457831 9.49759036 6.91204819 6.49759036 14.3337349 5.61445783 14.3337349 5.61445783 15.4506024 10.1506024 15.4506024 10.1506024 14.3325301 9.46987952 14.3325301 10.1325301 12.4831325 12.0277108 15.5433735 13.9253012 12.4951807 14.5843373 14.3506024 13.9048193 14.3506024 13.9048193 15.4710843 18.446988 15.4710843 18.446988 14.3506024"></polyline>
                </g>
                <g id="Group" transform="translate(77.108434, 6.024096)" fill="#E5262A">
                    <path d="M16.1445783,1.27228916 L16.1445783,1.63373494 L19.2891566,1.63373494 C19.4987952,1.63373494 19.813253,1.63373494 20.0240964,1.83855422 C20.2325301,2.04698795 20.2325301,2.35662651 20.2325301,2.56144578 L20.2325301,5.66987952 C20.2325301,5.87831325 20.2325301,6.18795181 20.0228916,6.39277108 C19.8060241,6.60240964 19.4927711,6.60240964 19.2879518,6.60240964 L17.7698795,6.60240964 C17.5048193,6.60240964 17.1554217,6.60240964 17.0349398,6.31686747 C16.9024096,6.03253012 17.0831325,5.7746988 17.239759,5.56626506 L19.2771084,2.8746988 L16.1445783,2.8746988 L14.8879518,4.53012048 C14.6783133,4.80722892 14.4963855,5.04819277 14.4963855,5.35783133 C14.4963855,5.6686747 14.6650602,5.89277108 14.8891566,6.18915663 L15.2024096,6.60120482 C15.5192771,7.01084337 15.8325301,7.42048193 16.2506024,7.6253012 C16.6722892,7.83012048 17.1662651,7.83012048 17.853012,7.83012048 L19.2144578,7.83012048 C20,7.83012048 21.1783133,7.83012048 21.9662651,7.04698795 C22.7493976,6.26385542 22.7493976,5.1313253 22.7493976,4.72168675 L22.7493976,3.4939759 C22.7493976,3.08072289 22.7493976,1.93975904 21.9662651,1.16626506 C21.1771084,0.387951807 20,0.390361446 19.2120482,0.390361446 L17.0373494,0.387951807 C16.8325301,0.387951807 16.5674699,0.387951807 16.3626506,0.595180723 C16.1578313,0.8 16.1578313,1.06144578 16.1578313,1.26987952" id="Path"></path>
                    <path d="M12.3710843,2.8746988 L15.5156627,2.8746988 L11.7421687,7.84216867 L8.59759036,7.84216867 M0.108433735,3.74578313 C0.108433735,3.52891566 0.108433735,3.27590361 0.31686747,3.07108434 C0.526506024,2.86626506 0.790361446,2.86626506 0.997590361,2.86626506 L6.26506024,2.86626506 C6.94819277,2.86626506 7.44337349,2.86626506 7.86385542,3.07108434 C8.28192771,3.27590361 8.59879518,3.68554217 8.91204819,4.10722892 L9.2253012,4.51686747 C9.45060241,4.8060241 9.62048193,5.03493976 9.62048193,5.34819277 C9.62048193,5.64939759 9.4373494,5.89036145 9.22650602,6.16746988 L7.9686747,7.83012048 L4.82409639,7.83012048 L6.86746988,5.14457831 C7.02409639,4.93614458 7.20963855,4.67710843 7.07831325,4.39277108 C6.94819277,4.10722892 6.60843373,4.10722892 6.34337349,4.10722892 L3.87951807,4.10722892 L3.87951807,10.3120482 L1.36746988,10.3120482 L1.36746988,4.12048193 L0.108433735,4.12048193 L0.108433735,3.75903614" id="Shape" fill-rule="nonzero"></path>
                </g>
            </g>
        </g>
    </g>
</svg>