<?xml version="1.0" encoding="UTF-8"?>
<svg viewBox="0 0 500 53" version="1.1" xmlns="http://www.w3.org/2000/svg" xmlns:xlink="http://www.w3.org/1999/xlink">
    <!-- Generator: Sketch 52.6 (67491) - http://www.bohemiancoding.com/sketch -->
    <title>Group 4</title>
    <desc>Created with Sketch.</desc>
    <g id="Page-1" stroke="none" stroke-width="1" fill="none" fill-rule="evenodd">
        <g id="Group-4">
            <rect id="Rectangle" stroke="#979797" fill="#D8D8D8" x="0.5" y="0.5" width="499" height="52"></rect>
            <path d="M18.3842773,28.3720703 L13.3745117,28.3720703 L13.3745117,37 L10.5473633,37 L10.5473633,15.671875 L17.6079102,15.671875 C20.0102659,15.671875 21.858392,16.2187445 23.1523438,17.3125 C24.4462955,18.4062555 25.0932617,19.9980364 25.0932617,22.0878906 C25.0932617,23.4160223 24.7343786,24.5732373 24.0166016,25.5595703 C23.2988245,26.5459034 22.3002994,27.2832007 21.0209961,27.7714844 L26.0307617,36.8242188 L26.0307617,37 L23.0131836,37 L18.3842773,28.3720703 Z M13.3745117,26.0722656 L17.6958008,26.0722656 C19.0922921,26.0722656 20.2031209,25.7109411 21.0283203,24.9882812 C21.8535198,24.2656214 22.2661133,23.2988342 22.2661133,22.0878906 C22.2661133,20.7695247 21.8730508,19.7587926 21.0869141,19.0556641 C20.3007773,18.3525355 19.1655348,17.9960938 17.6811523,17.9863281 L13.3745117,17.9863281 L13.3745117,26.0722656 Z M27.8911133,28.9287109 C27.8911133,27.3759688 28.196286,25.9794984 28.8066406,24.7392578 C29.4169952,23.4990172 30.2665961,22.5419956 31.3554688,21.8681641 C32.4443414,21.1943326 33.6870047,20.8574219 35.0834961,20.8574219 C37.24171,20.8574219 38.987298,21.6044847 40.3203125,23.0986328 C41.653327,24.5927809 42.3198242,26.5800657 42.3198242,29.0605469 L42.3198242,29.2509766 C42.3198242,30.793953 42.024417,32.1782165 41.4335938,33.4038086 C40.8427705,34.6294007 39.9980524,35.583981 38.8994141,36.2675781 C37.8007758,36.9511753 36.5385813,37.2929688 35.112793,37.2929688 C32.9643447,37.2929688 31.2236395,36.5459059 29.890625,35.0517578 C28.5576105,33.5576097 27.8911133,31.5800904 27.8911133,29.1191406 L27.8911133,28.9287109 Z M30.6157227,29.2509766 C30.6157227,31.0087979 31.0234334,32.4199166 31.8388672,33.484375 C32.654301,34.5488334 33.7455986,35.0810547 35.112793,35.0810547 C36.489753,35.0810547 37.583492,34.5415093 38.394043,33.4624023 C39.2045939,32.3832954 39.6098633,30.87208 39.6098633,28.9287109 C39.6098633,27.190421 39.1972698,25.7817437 38.3720703,24.7026367 C37.5468709,23.6235298 36.4506904,23.0839844 35.0834961,23.0839844 C33.7455988,23.0839844 32.666508,23.6162056 31.8461914,24.6806641 C31.0258748,25.7451225 30.6157227,27.2685448 30.6157227,29.2509766 Z M59.1362305,29.2509766 C59.1362305,31.6728637 58.5795954,33.618645 57.4663086,35.0883789 C56.3530218,36.5581128 54.8588961,37.2929688 52.9838867,37.2929688 C50.9819236,37.2929688 49.4340875,36.584968 48.340332,35.1689453 L48.2084961,37 L45.7182617,37 L45.7182617,14.5 L48.4282227,14.5 L48.4282227,22.8935547 C49.5219781,21.536126 51.0307521,20.8574219 52.9545898,20.8574219 C54.8784276,20.8574219 56.3896429,21.5849537 57.4882812,23.0400391 C58.5869196,24.4951245 59.1362305,26.487292 59.1362305,29.0166016 L59.1362305,29.2509766 Z M56.4262695,28.9433594 C56.4262695,27.097647 56.0698278,25.67188 55.3569336,24.6660156 C54.6440394,23.6601512 53.618659,23.1572266 52.2807617,23.1572266 C50.4936434,23.1572266 49.2094766,23.9872964 48.4282227,25.6474609 L48.4282227,32.5029297 C49.2583049,34.1630942 50.5522373,34.9931641 52.3100586,34.9931641 C53.6088932,34.9931641 54.6196253,34.4902394 55.3422852,33.484375 C56.064945,32.4785106 56.4262695,30.9648539 56.4262695,28.9433594 Z M61.831543,28.9287109 C61.831543,27.3759688 62.1367157,25.9794984 62.7470703,24.7392578 C63.3574249,23.4990172 64.2070258,22.5419956 65.2958984,21.8681641 C66.3847711,21.1943326 67.6274344,20.8574219 69.0239258,20.8574219 C71.1821397,20.8574219 72.9277277,21.6044847 74.2607422,23.0986328 C75.5937567,24.5927809 76.2602539,26.5800657 76.2602539,29.0605469 L76.2602539,29.2509766 C76.2602539,30.793953 75.9648467,32.1782165 75.3740234,33.4038086 C74.7832002,34.6294007 73.9384821,35.583981 72.8398438,36.2675781 C71.7412054,36.9511753 70.479011,37.2929688 69.0532227,37.2929688 C66.9047744,37.2929688 65.1640692,36.5459059 63.8310547,35.0517578 C62.4980402,33.5576097 61.831543,31.5800904 61.831543,29.1191406 L61.831543,28.9287109 Z M64.5561523,29.2509766 C64.5561523,31.0087979 64.9638631,32.4199166 65.7792969,33.484375 C66.5947306,34.5488334 67.6860283,35.0810547 69.0532227,35.0810547 C70.4301827,35.0810547 71.5239217,34.5415093 72.3344727,33.4624023 C73.1450236,32.3832954 73.550293,30.87208 73.550293,28.9287109 C73.550293,27.190421 73.1376994,25.7817437 72.3125,24.7026367 C71.4873006,23.6235298 70.3911201,23.0839844 69.0239258,23.0839844 C67.6860285,23.0839844 66.6069377,23.6162056 65.7866211,24.6806641 C64.9663045,25.7451225 64.5561523,27.2685448 64.5561523,29.2509766 Z M83.3354492,17.3125 L83.3354492,21.1503906 L86.2944336,21.1503906 L86.2944336,23.2451172 L83.3354492,23.2451172 L83.3354492,33.0742188 C83.3354492,33.7089875 83.4672838,34.185057 83.730957,34.5024414 C83.9946302,34.8198258 84.4438445,34.9785156 85.0786133,34.9785156 C85.3911148,34.9785156 85.820798,34.9199225 86.3676758,34.8027344 L86.3676758,37 C85.6547816,37.1953135 84.9614292,37.2929688 84.2875977,37.2929688 C83.0766541,37.2929688 82.1635773,36.9267615 81.5483398,36.1943359 C80.9331024,35.4619104 80.6254883,34.4218817 80.6254883,33.0742188 L80.6254883,23.2451172 L77.7397461,23.2451172 L77.7397461,21.1503906 L80.6254883,21.1503906 L80.6254883,17.3125 L83.3354492,17.3125 Z M88.4477539,28.9287109 C88.4477539,27.3759688 88.7529266,25.9794984 89.3632812,24.7392578 C89.9736359,23.4990172 90.8232367,22.5419956 91.9121094,21.8681641 C93.000982,21.1943326 94.2436454,20.8574219 95.6401367,20.8574219 C97.7983506,20.8574219 99.5439386,21.6044847 100.876953,23.0986328 C102.209968,24.5927809 102.876465,26.5800657 102.876465,29.0605469 L102.876465,29.2509766 C102.876465,30.793953 102.581058,32.1782165 101.990234,33.4038086 C101.399411,34.6294007 100.554693,35.583981 99.4560547,36.2675781 C98.3574164,36.9511753 97.095222,37.2929688 95.6694336,37.2929688 C93.5209854,37.2929688 91.7802801,36.5459059 90.4472656,35.0517578 C89.1142511,33.5576097 88.4477539,31.5800904 88.4477539,29.1191406 L88.4477539,28.9287109 Z M91.1723633,29.2509766 C91.1723633,31.0087979 91.580074,32.4199166 92.3955078,33.484375 C93.2109416,34.5488334 94.3022393,35.0810547 95.6694336,35.0810547 C97.0463936,35.0810547 98.1401327,34.5415093 98.9506836,33.4624023 C99.7612345,32.3832954 100.166504,30.87208 100.166504,28.9287109 C100.166504,27.190421 99.7539104,25.7817437 98.9287109,24.7026367 C98.1035115,23.6235298 97.0073311,23.0839844 95.6401367,23.0839844 C94.3022394,23.0839844 93.2231486,23.6162056 92.402832,24.6806641 C91.5825154,25.7451225 91.1723633,27.2685448 91.1723633,29.2509766 Z M113.599121,28.3427734 C113.599121,26.1357312 113.894528,24.0166117 114.485352,21.9853516 C115.076175,19.9540914 115.957514,18.1084067 117.129395,16.4482422 C118.301275,14.7880776 119.517084,13.6162144 120.776855,12.9326172 L121.333496,14.7197266 C119.907708,15.813482 118.738286,17.4833872 117.825195,19.7294922 C116.912105,21.9755972 116.411622,24.4902205 116.32373,27.2734375 L116.309082,28.5185547 C116.309082,32.2881048 116.997552,35.5595564 118.374512,38.3330078 C119.204594,39.9931724 120.190912,41.2919875 121.333496,42.2294922 L120.776855,43.8847656 C119.478021,43.1621058 118.237799,41.9511804 117.056152,40.2519531 C114.751453,36.931624 113.599121,32.9619372 113.599121,28.3427734 Z M123.237793,28.9287109 C123.237793,27.3759688 123.542966,25.9794984 124.15332,24.7392578 C124.763675,23.4990172 125.613276,22.5419956 126.702148,21.8681641 C127.791021,21.1943326 129.033684,20.8574219 130.430176,20.8574219 C132.58839,20.8574219 134.333978,21.6044847 135.666992,23.0986328 C137.000007,24.5927809 137.666504,26.5800657 137.666504,29.0605469 L137.666504,29.2509766 C137.666504,30.793953 137.371097,32.1782165 136.780273,33.4038086 C136.18945,34.6294007 135.344732,35.583981 134.246094,36.2675781 C133.147455,36.9511753 131.885261,37.2929688 130.459473,37.2929688 C128.311024,37.2929688 126.570319,36.5459059 125.237305,35.0517578 C123.90429,33.5576097 123.237793,31.5800904 123.237793,29.1191406 L123.237793,28.9287109 Z M125.962402,29.2509766 C125.962402,31.0087979 126.370113,32.4199166 127.185547,33.484375 C128.000981,34.5488334 129.092278,35.0810547 130.459473,35.0810547 C131.836433,35.0810547 132.930172,34.5415093 133.740723,33.4624023 C134.551274,32.3832954 134.956543,30.87208 134.956543,28.9287109 C134.956543,27.190421 134.543949,25.7817437 133.71875,24.7026367 C132.893551,23.6235298 131.79737,23.0839844 130.430176,23.0839844 C129.092278,23.0839844 128.013188,23.6162056 127.192871,24.6806641 C126.372554,25.7451225 125.962402,27.2685448 125.962402,29.2509766 Z M147.422363,35.0810547 C148.389165,35.0810547 149.233883,34.7880889 149.956543,34.2021484 C150.679203,33.616208 151.079589,32.8837935 151.157715,32.0048828 L153.721191,32.0048828 C153.672363,32.9130905 153.359866,33.7773396 152.783691,34.5976562 C152.207517,35.4179729 151.438481,36.0722632 150.476562,36.5605469 C149.514644,37.0488306 148.496587,37.2929688 147.422363,37.2929688 C145.264149,37.2929688 143.547858,36.5727611 142.273438,35.1323242 C140.999017,33.6918873 140.361816,31.7216922 140.361816,29.2216797 L140.361816,28.7675781 C140.361816,27.2246017 140.645017,25.8525451 141.211426,24.6513672 C141.777835,23.4501893 142.590815,22.5175814 143.650391,21.8535156 C144.709966,21.1894498 145.962395,20.8574219 147.407715,20.8574219 C149.185067,20.8574219 150.662103,21.3896431 151.838867,22.4541016 C153.015631,23.51856 153.643066,24.9003821 153.721191,26.5996094 L151.157715,26.5996094 C151.079589,25.5742136 150.69141,24.7319369 149.993164,24.0727539 C149.294918,23.4135709 148.433111,23.0839844 147.407715,23.0839844 C146.030755,23.0839844 144.963871,23.5795849 144.207031,24.5708008 C143.450192,25.5620167 143.071777,26.9951078 143.071777,28.8701172 L143.071777,29.3828125 C143.071777,31.2089935 143.44775,32.6152294 144.199707,33.6015625 C144.951664,34.5878956 146.025872,35.0810547 147.422363,35.0810547 Z M169.717285,37 L167.007324,37 L167.007324,30.2324219 L159.727051,30.2324219 L159.727051,37 L157.002441,37 L157.002441,21.1503906 L159.727051,21.1503906 L159.727051,28.0205078 L167.007324,28.0205078 L167.007324,21.1503906 L169.717285,21.1503906 L169.717285,37 Z M173.350098,28.9287109 C173.350098,27.3759688 173.65527,25.9794984 174.265625,24.7392578 C174.87598,23.4990172 175.72558,22.5419956 176.814453,21.8681641 C177.903326,21.1943326 179.145989,20.8574219 180.54248,20.8574219 C182.700694,20.8574219 184.446282,21.6044847 185.779297,23.0986328 C187.112311,24.5927809 187.778809,26.5800657 187.778809,29.0605469 L187.778809,29.2509766 C187.778809,30.793953 187.483401,32.1782165 186.892578,33.4038086 C186.301755,34.6294007 185.457037,35.583981 184.358398,36.2675781 C183.25976,36.9511753 181.997566,37.2929688 180.571777,37.2929688 C178.423329,37.2929688 176.682624,36.5459059 175.349609,35.0517578 C174.016595,33.5576097 173.350098,31.5800904 173.350098,29.1191406 L173.350098,28.9287109 Z M176.074707,29.2509766 C176.074707,31.0087979 176.482418,32.4199166 177.297852,33.484375 C178.113285,34.5488334 179.204583,35.0810547 180.571777,35.0810547 C181.948737,35.0810547 183.042476,34.5415093 183.853027,33.4624023 C184.663578,32.3832954 185.068848,30.87208 185.068848,28.9287109 C185.068848,27.190421 184.656254,25.7817437 183.831055,24.7026367 C183.005855,23.6235298 181.909675,23.0839844 180.54248,23.0839844 C179.204583,23.0839844 178.125492,23.6162056 177.305176,24.6806641 C176.484859,25.7451225 176.074707,27.2685448 176.074707,29.2509766 Z M191.42627,37 L191.42627,21.1503906 L197.60791,21.1503906 C199.717296,21.1503906 201.335932,21.5190393 202.463867,22.2563477 C203.591803,22.993656 204.155762,24.0751882 204.155762,25.5009766 C204.155762,26.2334021 203.936037,26.8950166 203.496582,27.4858398 C203.057127,28.0766631 202.407719,28.5283188 201.54834,28.8408203 C202.505376,29.0654308 203.274411,29.5048795 203.855469,30.1591797 C204.436526,30.8134798 204.727051,31.594722 204.727051,32.5029297 C204.727051,33.9580151 204.192388,35.0712852 203.123047,35.8427734 C202.053706,36.6142617 200.54249,37 198.589355,37 L191.42627,37 Z M194.13623,30.0419922 L194.13623,34.8173828 L198.618652,34.8173828 C199.751471,34.8173828 200.59863,34.607424 201.160156,34.1875 C201.721682,33.767576 202.002441,33.1767616 202.002441,32.4150391 C202.002441,30.8329999 200.840344,30.0419922 198.516113,30.0419922 L194.13623,30.0419922 Z M194.13623,27.8740234 L197.637207,27.8740234 C200.176282,27.8740234 201.445801,27.1318434 201.445801,25.6474609 C201.445801,24.1630785 200.244641,23.3964846 197.842285,23.3476562 L194.13623,23.3476562 L194.13623,27.8740234 Z M221.265137,37 L218.555176,37 L218.555176,30.2324219 L211.274902,30.2324219 L211.274902,37 L208.550293,37 L208.550293,21.1503906 L211.274902,21.1503906 L211.274902,28.0205078 L218.555176,28.0205078 L218.555176,21.1503906 L221.265137,21.1503906 L221.265137,37 Z M224.897949,28.9287109 C224.897949,27.3759688 225.203122,25.9794984 225.813477,24.7392578 C226.423831,23.4990172 227.273432,22.5419956 228.362305,21.8681641 C229.451177,21.1943326 230.693841,20.8574219 232.090332,20.8574219 C234.248546,20.8574219 235.994134,21.6044847 237.327148,23.0986328 C238.660163,24.5927809 239.32666,26.5800657 239.32666,29.0605469 L239.32666,29.2509766 C239.32666,30.793953 239.031253,32.1782165 238.44043,33.4038086 C237.849606,34.6294007 237.004888,35.583981 235.90625,36.2675781 C234.807612,36.9511753 233.545417,37.2929688 232.119629,37.2929688 C229.971181,37.2929688 228.230475,36.5459059 226.897461,35.0517578 C225.564446,33.5576097 224.897949,31.5800904 224.897949,29.1191406 L224.897949,28.9287109 Z M227.622559,29.2509766 C227.622559,31.0087979 228.030269,32.4199166 228.845703,33.484375 C229.661137,34.5488334 230.752435,35.0810547 232.119629,35.0810547 C233.496589,35.0810547 234.590328,34.5415093 235.400879,33.4624023 C236.21143,32.3832954 236.616699,30.87208 236.616699,28.9287109 C236.616699,27.190421 236.204106,25.7817437 235.378906,24.7026367 C234.553707,23.6235298 233.457526,23.0839844 232.090332,23.0839844 C230.752435,23.0839844 229.673344,23.6162056 228.853027,24.6806641 C228.032711,25.7451225 227.622559,27.2685448 227.622559,29.2509766 Z M252.979004,21.1503906 L255.688965,21.1503906 L255.688965,37 L252.979004,37 L252.979004,25.4423828 L245.669434,37 L242.959473,37 L242.959473,21.1503906 L245.669434,21.1503906 L245.669434,32.7226562 L252.979004,21.1503906 Z M253.711426,15.3789062 C253.711426,16.5605528 253.308598,17.5102503 252.50293,18.2280273 C251.697262,18.9458044 250.640143,19.3046875 249.331543,19.3046875 C248.022943,19.3046875 246.963383,18.943363 246.152832,18.2207031 C245.342281,17.4980433 244.937012,16.5507871 244.937012,15.3789062 L247.148926,15.3789062 C247.148926,16.0625034 247.334471,16.597166 247.705566,16.9829102 C248.076662,17.3686543 248.618649,17.5615234 249.331543,17.5615234 C250.01514,17.5615234 250.549803,17.3710957 250.935547,16.9902344 C251.321291,16.6093731 251.51416,16.0722691 251.51416,15.3789062 L253.711426,15.3789062 Z M270.425293,21.1503906 L270.425293,34.7880859 L276.226074,34.7880859 L276.226074,21.1503906 L278.936035,21.1503906 L278.936035,34.7880859 L284.722168,34.7880859 L284.722168,21.1503906 L287.446777,21.1503906 L287.446777,37 L267.700684,37 L267.700684,21.1503906 L270.425293,21.1503906 Z M305.112793,29.2509766 C305.112793,31.663098 304.561041,33.6064379 303.45752,35.0810547 C302.353998,36.5556714 300.859873,37.2929688 298.975098,37.2929688 C297.05126,37.2929688 295.537603,36.6826233 294.434082,35.4619141 L294.434082,43.09375 L291.724121,43.09375 L291.724121,21.1503906 L294.199707,21.1503906 L294.331543,22.9082031 C295.435064,21.5410088 296.968252,20.8574219 298.931152,20.8574219 C300.835459,20.8574219 302.341791,21.5751881 303.450195,23.0107422 C304.558599,24.4462962 305.112793,26.4433466 305.112793,29.0019531 L305.112793,29.2509766 Z M302.402832,28.9433594 C302.402832,27.1562411 302.021976,25.7451224 301.260254,24.7099609 C300.498531,23.6747995 299.45362,23.1572266 298.125488,23.1572266 C296.484855,23.1572266 295.254399,23.8847583 294.434082,25.3398438 L294.434082,32.9130859 C295.244633,34.3584057 296.484855,35.0810547 298.154785,35.0810547 C299.45362,35.0810547 300.486324,34.5659231 301.25293,33.5356445 C302.019535,32.5053659 302.402832,30.9746195 302.402832,28.9433594 Z M318.809082,21.1503906 L321.519043,21.1503906 L321.519043,37 L318.809082,37 L318.809082,25.4423828 L311.499512,37 L308.789551,37 L308.789551,21.1503906 L311.499512,21.1503906 L311.499512,32.7226562 L318.809082,21.1503906 Z M325.283691,29.3681641 C325.283691,26.7216665 325.796382,24.6416091 326.821777,23.1279297 C327.847173,21.6142502 329.253409,20.8574219 331.040527,20.8574219 C331.87061,20.8574219 332.598141,20.999022 333.223145,21.2822266 L333.223145,14.5 L335.933105,14.5 L335.933105,21.3701172 C336.616703,21.0283186 337.417476,20.8574219 338.335449,20.8574219 C340.132333,20.8574219 341.543452,21.6142502 342.568848,23.1279297 C343.594243,24.6416091 344.106934,26.8242045 344.106934,29.6757812 C344.106934,32.0097773 343.596685,33.8652275 342.576172,35.2421875 C341.555659,36.6191475 340.151864,37.3076172 338.364746,37.3076172 C337.417476,37.3076172 336.606937,37.1513688 335.933105,36.8388672 L335.933105,43.09375 L333.223145,43.09375 L333.223145,36.8828125 C332.57861,37.166017 331.841313,37.3076172 331.01123,37.3076172 C329.233878,37.3076172 327.834966,36.6191475 326.814453,35.2421875 C325.79394,33.8652275 325.283691,31.9804807 325.283691,29.5878906 L325.283691,29.3681641 Z M341.396973,29.3681641 C341.396973,27.3759666 341.055179,25.8305719 340.371582,24.7319336 C339.687985,23.6332953 338.745611,23.0839844 337.544434,23.0839844 C336.929196,23.0839844 336.392092,23.1816396 335.933105,23.3769531 L335.933105,34.8466797 C336.372561,35.0126961 336.91943,35.0957031 337.57373,35.0957031 C338.784674,35.0957031 339.724606,34.6269578 340.393555,33.6894531 C341.062503,32.7519484 341.396973,31.3115332 341.396973,29.3681641 Z M327.993652,29.6757812 C327.993652,31.4531339 328.311032,32.8007767 328.945801,33.71875 C329.58057,34.6367233 330.493646,35.0957031 331.685059,35.0957031 C332.251468,35.0957031 332.764158,35.0078134 333.223145,34.8320312 L333.223145,23.3330078 C332.812986,23.1669914 332.310062,23.0839844 331.714355,23.0839844 C330.522943,23.0839844 329.604984,23.6162056 328.960449,24.6806641 C328.315915,25.7451225 327.993652,27.4101449 327.993652,29.6757812 Z M358.228027,23.3476562 L352.910645,23.3476562 L352.910645,37 L350.200684,37 L350.200684,23.3476562 L344.98584,23.3476562 L344.98584,21.1503906 L358.228027,21.1503906 L358.228027,23.3476562 Z M381.255371,37 L378.54541,37 L378.54541,23.3916016 L371.250488,23.3916016 L371.250488,37 L368.525879,37 L368.525879,21.1503906 L381.255371,21.1503906 L381.255371,37 Z M384.888184,28.9287109 C384.888184,27.3759688 385.193356,25.9794984 385.803711,24.7392578 C386.414066,23.4990172 387.263666,22.5419956 388.352539,21.8681641 C389.441412,21.1943326 390.684075,20.8574219 392.080566,20.8574219 C394.23878,20.8574219 395.984368,21.6044847 397.317383,23.0986328 C398.650397,24.5927809 399.316895,26.5800657 399.316895,29.0605469 L399.316895,29.2509766 C399.316895,30.793953 399.021487,32.1782165 398.430664,33.4038086 C397.839841,34.6294007 396.995123,35.583981 395.896484,36.2675781 C394.797846,36.9511753 393.535652,37.2929688 392.109863,37.2929688 C389.961415,37.2929688 388.22071,36.5459059 386.887695,35.0517578 C385.554681,33.5576097 384.888184,31.5800904 384.888184,29.1191406 L384.888184,28.9287109 Z M387.612793,29.2509766 C387.612793,31.0087979 388.020504,32.4199166 388.835938,33.484375 C389.651371,34.5488334 390.742669,35.0810547 392.109863,35.0810547 C393.486823,35.0810547 394.580562,34.5415093 395.391113,33.4624023 C396.201664,32.3832954 396.606934,30.87208 396.606934,28.9287109 C396.606934,27.190421 396.19434,25.7817437 395.369141,24.7026367 C394.543941,23.6235298 393.447761,23.0839844 392.080566,23.0839844 C390.742669,23.0839844 389.663578,23.6162056 388.843262,24.6806641 C388.022945,25.7451225 387.612793,27.2685448 387.612793,29.2509766 Z M416.104004,29.2509766 C416.104004,31.663098 415.552252,33.6064379 414.44873,35.0810547 C413.345209,36.5556714 411.851084,37.2929688 409.966309,37.2929688 C408.042471,37.2929688 406.528814,36.6826233 405.425293,35.4619141 L405.425293,43.09375 L402.715332,43.09375 L402.715332,21.1503906 L405.190918,21.1503906 L405.322754,22.9082031 C406.426275,21.5410088 407.959463,20.8574219 409.922363,20.8574219 C411.82667,20.8574219 413.333002,21.5751881 414.441406,23.0107422 C415.54981,24.4462962 416.104004,26.4433466 416.104004,29.0019531 L416.104004,29.2509766 Z M413.394043,28.9433594 C413.394043,27.1562411 413.013187,25.7451224 412.251465,24.7099609 C411.489742,23.6747995 410.444831,23.1572266 409.116699,23.1572266 C407.476066,23.1572266 406.24561,23.8847583 405.425293,25.3398438 L405.425293,32.9130859 C406.235844,34.3584057 407.476066,35.0810547 409.145996,35.0810547 C410.444831,35.0810547 411.477535,34.5659231 412.244141,33.5356445 C413.010746,32.5053659 413.394043,30.9746195 413.394043,28.9433594 Z M430.151855,23.3476562 L424.834473,23.3476562 L424.834473,37 L422.124512,37 L422.124512,23.3476562 L416.909668,23.3476562 L416.909668,21.1503906 L430.151855,21.1503906 L430.151855,23.3476562 Z M442.339355,37 C442.183105,36.6874984 442.056153,36.1308634 441.958496,35.3300781 C440.698724,36.6386784 439.194833,37.2929688 437.446777,37.2929688 C435.88427,37.2929688 434.602544,36.8510786 433.601562,35.9672852 C432.600581,35.0834917 432.100098,33.9628974 432.100098,32.6054688 C432.100098,30.9550699 432.727533,29.6733444 433.982422,28.7602539 C435.237311,27.8471634 437.00243,27.390625 439.277832,27.390625 L441.914551,27.390625 L441.914551,26.1455078 C441.914551,25.1982375 441.63135,24.4438505 441.064941,23.8823242 C440.498532,23.320798 439.66358,23.0400391 438.560059,23.0400391 C437.593257,23.0400391 436.782718,23.2841772 436.128418,23.7724609 C435.474118,24.2607446 435.146973,24.851559 435.146973,25.5449219 L432.422363,25.5449219 C432.422363,24.7539023 432.703122,23.9897498 433.264648,23.2524414 C433.826175,22.515133 434.587886,21.9316428 435.549805,21.5019531 C436.511724,21.0722635 437.568842,20.8574219 438.721191,20.8574219 C440.547372,20.8574219 441.978022,21.3139603 443.013184,22.2270508 C444.048345,23.1401413 444.585449,24.3974529 444.624512,25.9990234 L444.624512,33.2939453 C444.624512,34.7490307 444.810057,35.9062457 445.181152,36.765625 L445.181152,37 L442.339355,37 Z M437.842285,34.9345703 C438.691899,34.9345703 439.497555,34.7148459 440.259277,34.2753906 C441.021,33.8359353 441.572752,33.264652 441.914551,32.5615234 L441.914551,29.3095703 L439.790527,29.3095703 C436.470198,29.3095703 434.810059,30.2812403 434.810059,32.2246094 C434.810059,33.074223 435.093259,33.7382789 435.659668,34.2167969 C436.226077,34.6953149 436.953609,34.9345703 437.842285,34.9345703 Z M461.865723,21.1503906 L461.865723,37 L459.141113,37 L459.141113,23.3916016 L453.750488,23.3916016 L453.428223,29.3242188 C453.252441,32.0488417 452.795902,33.9970645 452.058594,35.1689453 C451.321285,36.3408262 450.151863,36.9511716 448.550293,37 L447.466309,37 L447.466309,34.6123047 L448.242676,34.5537109 C449.121586,34.4560542 449.751463,33.9482468 450.132324,33.0302734 C450.513185,32.1123001 450.757324,30.4130983 450.864746,27.9326172 L451.157715,21.1503906 L461.865723,21.1503906 Z M476.001465,37 C475.845214,36.6874984 475.718262,36.1308634 475.620605,35.3300781 C474.360834,36.6386784 472.856942,37.2929688 471.108887,37.2929688 C469.546379,37.2929688 468.264653,36.8510786 467.263672,35.9672852 C466.26269,35.0834917 465.762207,33.9628974 465.762207,32.6054688 C465.762207,30.9550699 466.389642,29.6733444 467.644531,28.7602539 C468.89942,27.8471634 470.664539,27.390625 472.939941,27.390625 L475.57666,27.390625 L475.57666,26.1455078 C475.57666,25.1982375 475.29346,24.4438505 474.727051,23.8823242 C474.160642,23.320798 473.325689,23.0400391 472.222168,23.0400391 C471.255366,23.0400391 470.444827,23.2841772 469.790527,23.7724609 C469.136227,24.2607446 468.809082,24.851559 468.809082,25.5449219 L466.084473,25.5449219 C466.084473,24.7539023 466.365232,23.9897498 466.926758,23.2524414 C467.488284,22.515133 468.249995,21.9316428 469.211914,21.5019531 C470.173833,21.0722635 471.230951,20.8574219 472.383301,20.8574219 C474.209482,20.8574219 475.640132,21.3139603 476.675293,22.2270508 C477.710454,23.1401413 478.247558,24.3974529 478.286621,25.9990234 L478.286621,33.2939453 C478.286621,34.7490307 478.472166,35.9062457 478.843262,36.765625 L478.843262,37 L476.001465,37 Z M471.504395,34.9345703 C472.354008,34.9345703 473.159664,34.7148459 473.921387,34.2753906 C474.683109,33.8359353 475.234862,33.264652 475.57666,32.5615234 L475.57666,29.3095703 L473.452637,29.3095703 C470.132308,29.3095703 468.472168,30.2812403 468.472168,32.2246094 C468.472168,33.074223 468.755368,33.7382789 469.321777,34.2167969 C469.888186,34.6953149 470.615718,34.9345703 471.504395,34.9345703 Z M488.789551,28.4892578 C488.789551,30.6670031 488.503909,32.7543845 487.932617,34.7514648 C487.361325,36.7485451 486.487311,38.5917884 485.310547,40.28125 C484.133783,41.9707116 482.900885,43.1718714 481.611816,43.8847656 L481.040527,42.2294922 C482.544441,41.0771427 483.752925,39.2876098 484.666016,36.8608398 C485.579106,34.4340699 486.04541,31.7412257 486.064941,28.7822266 L486.064941,28.3134766 C486.064941,26.2626851 485.8501,24.3559658 485.42041,22.5932617 C484.990721,20.8305576 484.392582,19.2509835 483.625977,17.8544922 C482.859371,16.4580008 481.997563,15.3691445 481.040527,14.5878906 L481.611816,12.9326172 C482.900885,13.6455114 484.1289,14.8369057 485.295898,16.5068359 C486.462896,18.1767662 487.336911,20.0175681 487.917969,22.0292969 C488.499026,24.0410257 488.789551,26.1943245 488.789551,28.4892578 Z" id="Roboto-(основной-шри" fill="#FF0404"></path>
        </g>
    </g>
</svg>
