<?xml version="1.0" encoding="UTF-8"?>
<svg width="128px" height="128px" viewBox="0 0 128 128" version="1.1" xmlns="http://www.w3.org/2000/svg" xmlns:xlink="http://www.w3.org/1999/xlink">
    <!-- Generator: Sketch 52.6 (67491) - http://www.bohemiancoding.com/sketch -->
    <title>logo_small</title>
    <desc>Created with Sketch.</desc>
    <g id="Page-1" stroke="none" stroke-width="1" fill="none" fill-rule="evenodd">
        <g id="logo_small">
            <rect id="temp" stroke="#979797" fill="#D8D8D8" x="0.5" y="0.5" width="127" height="127"></rect>
            <path d="M99,58.8055723 C99,56.554676 97.7650657,54.5793996 95.9204803,53.5075442 C95.1232442,53.0481776 94.1696874,52.7572454 93.2317626,52.6806843 C77.9123244,51.9150734 65.6411418,50.429788 57.2154508,49.1129371 C55.4021296,49.1435616 50.9313548,49.5416793 40.5985501,51.6241412 C40.5985501,51.6241412 49.5869959,49.1588738 53.6826008,48.5616972 C68.5643407,45.7442488 87.0727232,44.9786378 92.5908473,44.8255156 C96.0455369,44.8255156 98.8436792,42.0386916 98.8436792,38.6393788 C98.8436792,36.3884825 97.7963299,34.2907084 95.9673765,33.218853 C95.2014046,32.7747986 94.1696874,32.5298031 93.2161305,32.4685542 C67.4544631,31.19764 50.5718169,27.8289516 45.5382873,26.7264718 C44.897372,26.7877207 43.2403715,27.0480284 39.598097,28.135196 C39.598097,28.135196 40.395333,27.4461461 43.9594472,26.3589785 C61.4048482,20.8925161 94.2165836,20.188154 94.2165836,20.188154 C96.8115088,20.188154 98.9062075,18.1363165 98.9062075,15.594488 C98.9062075,12.8382885 96.9678296,10.9548854 94.2165836,11.0008221 C94.2165836,11.0008221 52.8072043,11.4908131 33.5172179,19.8972218 C31.0473493,20.9231405 30.0156321,22.9902902 30.0156321,25.3943087 C30.0156321,27.645205 31.2505664,29.6051691 33.0951518,30.6770245 C34.9241051,31.7488799 41.176937,35.5309982 54.6205256,36.8478491 C55.0269597,36.8019124 55.48029,36.771288 56.0117807,36.7253513 C81.5233348,34.612265 87.6511101,34.8113239 87.7917988,34.9338216 C87.8543271,34.9797583 87.8386951,35.0716316 87.7136384,35.0716316 C82.8676937,34.9031972 64.6250566,36.3272336 56.3400544,37.0162835 C47.4297689,38.0115778 38.6445401,39.5887364 32.9231989,42.0999405 C30.6878115,43.1564836 30,44.9480134 30,47.1989097 C30,48.8066927 30.4845945,50.429788 31.5163117,51.5322679 L31.5319438,51.5475801 C34.1893974,54.3497163 41.4426824,57.044667 58.0126869,58.8974456 C69.6116901,57.4580969 91.2621205,56.5699882 91.6998188,56.8302959 C91.7623471,56.8456081 91.7623471,56.9834181 91.6372904,56.9834181 C86.3692796,56.9681059 67.0792932,58.4227668 59.1069325,59.0352556 C50.2904395,59.9846132 40.9111917,61.5158352 33.2514726,63.9351659 C31.3599909,64.5323425 30,66.2932477 30,68.3603974 C30,70.9175381 32.0946987,73 34.6896239,73 C35.5806525,72.9846878 35.9401903,72.8162534 36.3153602,72.7396923 C66.3914816,66.2932477 83.5555052,67.1201076 94.2009515,64.7926502 C96.9521976,64.149537 99,61.714894 99,58.8055723 Z" id="Path" fill="#000000"></path>
            <path d="M44.5942233,89 L51.8397323,109.307692 L59.0464952,89 L66.6794646,89 L66.6794646,117 L60.848186,117 L60.848186,109.346154 L61.4293765,96.1346154 L53.8157802,117 L49.8249384,117 L42.230715,96.1538462 L42.8119056,109.346154 L42.8119056,117 L37,117 L37,89 L44.5942233,89 Z M92,92.0384615 L82.9334273,92.0384615 L82.9334273,117 L79.2331807,117 L79.2331807,92.0384615 L70.185981,92.0384615 L70.185981,89 L92,89 L92,92.0384615 Z" id="MT" fill="#000000"></path>
        </g>
    </g>
</svg>