<?xml version="1.0" encoding="UTF-8"?>
<svg width="128px" height="128px" viewBox="0 0 128 128" version="1.1" xmlns="http://www.w3.org/2000/svg" xmlns:xlink="http://www.w3.org/1999/xlink">
    <!-- Generator: Sketch 52.6 (67491) - http://www.bohemiancoding.com/sketch -->
    <title>logo_smallest</title>
    <desc>Created with Sketch.</desc>
    <g id="Page-1" stroke="none" stroke-width="1" fill="none" fill-rule="evenodd">
        <g id="logo_smallest">
            <rect id="temp" stroke="#979797" fill="#D8D8D8" x="0.5" y="0.5" width="127" height="127"></rect>
            <path d="M125,94.0452803 C125,90.0880593 122.834391,86.6153961 119.599683,84.7310051 C118.201631,83.923409 116.529452,83.4119315 114.884685,83.2773322 C88.0201631,81.9313386 66.5011328,79.3201112 51.7256457,77.0050024 C48.5457635,77.0588421 40.7057091,77.7587587 22.5858632,81.4198611 C22.5858632,81.4198611 38.3482102,77.085762 45.530358,76.0358871 C71.6273222,71.0826309 104.084051,69.7366374 113.760761,69.4674387 C119.818985,69.4674387 124.725872,64.5680223 124.725872,58.5918111 C124.725872,54.6345902 122.889216,50.946568 119.681921,49.062177 C118.338695,48.2815008 116.529452,47.8507829 114.857272,47.7431034 C69.681015,45.5087542 40.0752152,39.5863827 31.2483009,37.6481521 C30.124377,37.7558315 27.2186226,38.2134693 20.8314454,40.1247801 C20.8314454,40.1247801 22.2294971,38.913386 28.4796103,37.0020752 C59.07227,27.3916815 116.61169,26.1533674 116.61169,26.1533674 C121.162211,26.1533674 124.835523,22.5461048 124.835523,18.0774064 C124.835523,13.2318297 121.436339,9.92068567 116.61169,10.0014453 C116.61169,10.0014453 43.9952424,10.8628811 10.1678749,25.6418899 C5.83665609,27.4455212 4.02741278,31.0797037 4.02741278,35.3061233 C4.02741278,39.2633443 6.1930222,42.7090877 9.42772995,44.5934786 C12.6350249,46.4778695 23.6001359,53.1270775 47.1751246,55.4421863 C47.8878568,55.3614267 48.6828274,55.3075869 49.6148618,55.2268273 C94.3525147,51.5118852 105.098324,51.8618436 105.345039,52.0772025 C105.45469,52.1579621 105.427277,52.3194813 105.207975,52.3194813 C96.7100136,52.0233628 64.7193022,54.5269107 50.1905301,55.7383049 C34.5652469,57.4880964 19.159266,60.2608431 9.1261894,64.6757018 C5.20616221,66.5331728 4,69.6827977 4,73.6400186 C4,76.466605 4.8497961,79.3201112 6.65903942,81.2583419 L6.6864522,81.2852618 C11.3466244,86.211598 24.0661531,90.9494952 53.1236973,94.2067995 C73.4639783,91.6763317 111.430675,90.1149792 112.198233,90.572617 C112.307884,90.5995369 112.307884,90.8418157 112.088582,90.8418157 C102.850476,90.8148958 69.0231083,93.3722835 55.0425918,94.4490783 C39.5817852,96.1181103 23.1341187,98.8100973 9.70185773,103.063437 C6.38491164,104.113312 4,107.209097 4,110.843279 C4,115.338898 7.67331219,119 12.2238333,119 C13.7863616,118.97308 14.4168555,118.676962 15.0747621,118.542362 C67.8169461,107.209097 97.9161758,108.66277 116.584277,104.57095 C121.408926,103.440315 125,99.1600556 125,94.0452803 Z" id="Path" fill="#000000"></path>
        </g>
    </g>
</svg>