<svg xmlns="http://www.w3.org/2000/svg" viewBox="0 0 2048 2048" xmlns:xlink="http://www.w3.org/1999/xlink">
  <defs>
    <style>
      .mainColor {
        fill: #fff;
      }
    </style>
    <g id="shape">
      <g id="white_space" transform="translate(-192, -192) scale(1.5)" data-name="white space">
        <path
          d="M366.25 342.31zM384 319.69a23.54 23.54 0 0 0-11.7-20.06 22.28 22.28 0 0 0-10.25-3.15C305.2 293.58 260.21 288 229 283c-6.72.14-8.75.12-48.21 8.25 0 0 8.81-3.54 13.34-4.76 5.51-1.5 21.72-5.59 21.72-5.59 55.23-10.66 124-13.56 144.43-14.14a23.36 23.36 0 0 0 23.2-23.42c0-8.55-3.87-16.46-10.7-20.52a24.08 24.08 0 0 0-10.24-2.82c-95.58-4.83-158.25-17.55-176.91-21.76-2.32.23-8.54 1.2-22 5.31 0 0 2.63-2.48 15.48-6.47l.71-.23c64.75-20.83 186.48-23.47 186.48-23.47a17.4 17.4 0 0 0 17.4-17.4c0-10.44-7.16-17.58-17.4-17.4 0 0-153.68 1.87-225.25 33.67-9.2 3.91-13 11.7-13 20.85a23.19 23.19 0 0 0 11.42 20c7 4.19 31.7 19.44 85.37 23.88 64.66-6 117.45-7.35 117.62-7.17.38.4-.09.52-.27.52-20.4 0-104.77 6.38-126.7 8-29.39 3.8-57.59 9.5-76.57 18-8.29 4-10.87 10.78-10.87 19.32 0 6.14 1.78 12.24 5.63 16.39l.06.05c10 10.8 37.61 20.57 101.07 27.56a27.94 27.94 0 0 0 2.85-.22c65.42-6.11 119.13-6.94 119.31-6.76.4.12.37.58-.24.58-21.32 0-103.15 6.73-126 8.44-31.1 3.67-63.8 8.68-90.64 17.34a17.61 17.61 0 0 0 5.37 34.32 22.49 22.49 0 0 0 6-1C263 348 326.72 351.2 366.18 342.33A23.27 23.27 0 0 0 384 319.69z"
          class="mainColor"/>
      </g>
    </g>
    <pattern id="pattern1" x="0" y="0" width="512" height="512" patternUnits="userSpaceOnUse">
      <use xlink:href="#shape" x="0" y="0"/>
    </pattern>
    <pattern id="pattern2" x="0" y="0" width="512" height="512" patternUnits="userSpaceOnUse" patternTransform="translate(256, 0)">
      <use xlink:href="#shape" x="0" y="0"/>
    </pattern>
  </defs>
  <rect x="0" y="0" width="2048" height="2048" style="fill: #000;"/>
  <rect x="0" y="0" width="2048" height="512" style="fill: url(#pattern1);"/>
  <rect x="0" y="512" width="2048" height="512" style="fill: url(#pattern2);"/>
  <rect x="0" y="1024" width="2048" height="512" style="fill: url(#pattern1);"/>
  <rect x="0" y="1536" width="2048" height="512" style="fill: url(#pattern2);"/>
</svg>
