<?xml version="1.0" encoding="UTF-8"?>
<svg width="32px" height="32px" viewBox="0 0 32 32" version="1.1" xmlns="http://www.w3.org/2000/svg" xmlns:xlink="http://www.w3.org/1999/xlink">
    <!-- Generator: Sketch 52.6 (67491) - http://www.bohemiancoding.com/sketch -->
    <title>icon_nose</title>
    <desc>Created with Sketch.</desc>
    <g id="Page-1" stroke="none" stroke-width="1" fill="none" fill-rule="evenodd">
        <g id="icon_nose">
            <path d="M28,23 C28,25.6723363 25.4949815,26.9248456 21.0167485,26.9998597 L20.9832515,25.0001403 C24.5050185,24.9411477 26,24.193657 26,23 C26,21.806343 24.5050185,21.0588523 20.9832515,20.9998597 L20,20.9833894 L20,10 C20,7.22396212 18.7486661,6 15.8881836,6 C13.045163,6 11.8756006,7.196316 12,10 L12,21 L11,21 C7.48142397,21 6,21.740712 6,23 C6,24.259288 7.48142397,25 11,25 L11,27 C6.51857603,27 4,25.740712 4,23 C4,20.4702922 6.14569996,19.202683 10.0000981,19.0224938 L10.0009987,10.0446819 C9.82622233,6.13701733 11.9154489,4 15.8881836,4 C19.8434563,4 22,6.10937121 22,10 L22,19.0375483 C25.8600334,19.273007 28,20.5300445 28,23 Z" id="nose" fill="#000000" fill-rule="nonzero"></path>
        </g>
    </g>
</svg>
