<svg xmlns="http://www.w3.org/2000/svg" version="1.1" viewBox="0 0 128 128">
  <style>
    svg * {
      fill: #000;
    }
    g {
      display: none;
    }
    g:target {
      display: inline;
    }
  </style>
  <g id="logo_big">
    <path
      d="M8.12989801,100.66838 L11.1160762,109.491003 L14.0862856,100.66838 L17.2321524,100.66838 L17.2321524,112.832905 L14.8288379,112.832905 L14.8288379,109.507712 L15.0683709,103.767995 L11.9304885,112.832905 L10.2856951,112.832905 L7.1557971,103.77635 L7.39533011,109.507712 L7.39533011,112.832905 L5,112.832905 L5,100.66838 L8.12989801,100.66838 Z M24.1786098,112.832905 C24.0721501,112.61568 23.994968,112.345546 23.9470612,112.022494 C23.388148,112.674168 22.6615718,113 21.7673108,113 C20.9209566,113 20.2196642,112.74379 19.6634125,112.231362 C19.1071608,111.718935 18.8290392,111.07284 18.8290392,110.293059 C18.8290392,109.335042 19.1683742,108.599831 19.8470545,108.087404 C20.5257347,107.574976 21.5064795,107.315981 22.7893183,107.310411 L23.851248,107.310411 L23.851248,106.792416 C23.851248,106.374677 23.7487821,106.04049 23.5438473,105.789846 C23.3389125,105.539202 23.0155461,105.413882 22.5737386,105.413882 C22.1851609,105.413882 21.8804247,105.511353 21.6595209,105.706298 C21.4386172,105.901243 21.3281669,106.168593 21.3281669,106.508355 L19.0206656,106.508355 C19.0206656,105.984787 19.1750298,105.500216 19.4837627,105.054627 C19.7924957,104.609038 20.2289737,104.259534 20.7932099,104.006105 C21.357446,103.752677 21.9908714,103.625964 22.6935051,103.625964 C23.7581016,103.625964 24.6031124,103.905846 25.2285628,104.465617 C25.8540132,105.025388 26.1667338,105.81212 26.1667338,106.825835 L26.1667338,110.744216 C26.1720567,111.601975 26.2864992,112.250855 26.5100644,112.690874 L26.5100644,112.832905 L24.1786098,112.832905 Z M22.2703301,111.153599 C22.611001,111.153599 22.9250522,111.07423 23.2124933,110.915488 C23.4999343,110.756747 23.7128504,110.543703 23.851248,110.27635 L23.851248,108.722365 L22.9889291,108.722365 C21.833842,108.722365 21.2190467,109.140099 21.144525,109.975578 L21.1365405,110.117609 C21.1365405,110.418382 21.2376757,110.666237 21.439949,110.861183 C21.6422223,111.056128 21.9190133,111.153599 22.2703301,111.153599 Z M31.2288647,106.491645 L32.6820317,103.793059 L35.1492217,103.793059 L32.6900161,108.22108 L35.2530193,112.832905 L32.7778449,112.832905 L31.2368492,109.992288 L29.7038379,112.832905 L27.220679,112.832905 L29.7836822,108.22108 L27.3324611,103.793059 L29.8076355,103.793059 L31.2288647,106.491645 Z M38.6943103,112.832905 L36.3788245,112.832905 L36.3788245,103.793059 L38.6943103,103.793059 L38.6943103,112.832905 Z M36.2430891,101.453728 C36.2430891,101.091686 36.3588622,100.793703 36.590412,100.559769 C36.8219617,100.325834 37.1373437,100.208869 37.5365674,100.208869 C37.9304681,100.208869 38.2445193,100.325834 38.4787305,100.559769 C38.7129418,100.793703 38.8300456,101.091686 38.8300456,101.453728 C38.8300456,101.821339 38.711611,102.122107 38.4747383,102.356041 C38.2378656,102.589975 37.9251451,102.706941 37.5365674,102.706941 C37.1479896,102.706941 36.8352691,102.589975 36.5983964,102.356041 C36.3615237,102.122107 36.2430891,101.821339 36.2430891,101.453728 Z M42.758387,103.793059 L42.8302469,104.803985 C43.4423899,104.018634 44.2701012,103.625964 45.3134058,103.625964 C46.4259091,103.625964 47.1897456,104.085471 47.6049383,105.004499 C48.2117583,104.085471 49.0767299,103.625964 50.1998792,103.625964 C51.1367241,103.625964 51.8340244,103.911415 52.2918009,104.482326 C52.7495773,105.053238 52.9784622,105.912376 52.9784622,107.059769 L52.9784622,112.832905 L50.6629764,112.832905 L50.6629764,107.068123 C50.6629764,106.555696 50.5671641,106.181128 50.3755368,105.944409 C50.1839094,105.707689 49.8459051,105.589332 49.3615137,105.589332 C48.669526,105.589332 48.1904647,105.934658 47.9243156,106.625321 L47.9323001,112.832905 L45.6247987,112.832905 L45.6247987,107.076478 C45.6247987,106.552911 45.526325,106.174166 45.3293747,105.940231 C45.1324243,105.706297 44.7970815,105.589332 44.323336,105.589332 C43.6686092,105.589332 43.1948709,105.87339 42.9021068,106.441517 L42.9021068,112.832905 L40.5946055,112.832905 L40.5946055,103.793059 L42.758387,103.793059 Z M59.7572464,112.832905 C59.6507867,112.61568 59.5736046,112.345546 59.5256978,112.022494 C58.9667846,112.674168 58.2402084,113 57.3459474,113 C56.4995932,113 55.7983008,112.74379 55.2420491,112.231362 C54.6857975,111.718935 54.4076758,111.07284 54.4076758,110.293059 C54.4076758,109.335042 54.7470108,108.599831 55.4256911,108.087404 C56.1043713,107.574976 57.0851161,107.315981 58.3679549,107.310411 L59.4298846,107.310411 L59.4298846,106.792416 C59.4298846,106.374677 59.3274187,106.04049 59.1224839,105.789846 C58.9175491,105.539202 58.5941827,105.413882 58.1523752,105.413882 C57.7637975,105.413882 57.4590613,105.511353 57.2381575,105.706298 C57.0172538,105.901243 56.9068035,106.168593 56.9068035,106.508355 L54.5993022,106.508355 C54.5993022,105.984787 54.7536664,105.500216 55.0623994,105.054627 C55.3711323,104.609038 55.8076103,104.259534 56.3718465,104.006105 C56.9360826,103.752677 57.569508,103.625964 58.2721417,103.625964 C59.3367382,103.625964 60.181749,103.905846 60.8071994,104.465617 C61.4326498,105.025388 61.7453704,105.81212 61.7453704,106.825835 L61.7453704,110.744216 C61.7506934,111.601975 61.8651358,112.250855 62.088701,112.690874 L62.088701,112.832905 L59.7572464,112.832905 Z M57.8489667,111.153599 C58.1896376,111.153599 58.5036888,111.07423 58.7911299,110.915488 C59.0785709,110.756747 59.2914871,110.543703 59.4298846,110.27635 L59.4298846,108.722365 L58.5675658,108.722365 C57.4124786,108.722365 56.7976833,109.140099 56.7231616,109.975578 L56.7151771,110.117609 C56.7151771,110.418382 56.8163123,110.666237 57.0185856,110.861183 C57.2208589,111.056128 57.4976499,111.153599 57.8489667,111.153599 Z M72.0133521,101.988432 L68.2766371,101.988432 L68.2766371,112.832905 L66.7516103,112.832905 L66.7516103,101.988432 L63.0228798,101.988432 L63.0228798,100.66838 L72.0133521,100.66838 L72.0133521,101.988432 Z M76.300993,113 C75.1299369,113 74.1771373,112.597583 73.4425658,111.792738 C72.7079942,110.987892 72.3407139,109.911532 72.3407139,108.563625 L72.3407139,108.279563 C72.3407139,107.382815 72.5043932,106.582159 72.8317566,105.877571 C73.15912,105.172983 73.6168896,104.621574 74.2050792,104.223329 C74.7932687,103.825084 75.4306863,103.625964 76.117351,103.625964 C77.2405003,103.625964 78.1134564,104.013064 78.7362453,104.787275 C79.3590342,105.561486 79.670424,106.669873 79.670424,108.112468 L79.670424,108.755784 L73.8178341,108.755784 C73.8391261,109.646962 74.0879718,110.366857 74.5643787,110.915488 C75.0407856,111.46412 75.6462658,111.738432 76.3808374,111.738432 C76.9024896,111.738432 77.3442906,111.627036 77.7062534,111.404242 C78.0682162,111.181447 78.3849289,110.886249 78.656401,110.518638 L79.558642,111.253856 C78.8347164,112.417958 77.7488442,113 76.300993,113 Z M76.117351,104.895887 C75.521177,104.895887 75.0208242,105.122855 74.6162775,105.576799 C74.2117308,106.030743 73.9615544,106.667091 73.8657407,107.485861 L78.1933038,107.485861 L78.1933038,107.368895 C78.15072,106.583544 77.9484497,105.975045 77.5864868,105.54338 C77.224524,105.111716 76.734817,104.895887 76.117351,104.895887 Z M82.983964,112.832905 L81.5068438,112.832905 L81.5068438,100 L82.983964,100 L82.983964,112.832905 Z M88.9323671,113 C87.761311,113 86.8085115,112.597583 86.0739399,111.792738 C85.3393683,110.987892 84.972088,109.911532 84.972088,108.563625 L84.972088,108.279563 C84.972088,107.382815 85.1357673,106.582159 85.4631307,105.877571 C85.7904941,105.172983 86.2482637,104.621574 86.8364533,104.223329 C87.4246429,103.825084 88.0620604,103.625964 88.7487252,103.625964 C89.8718745,103.625964 90.7448305,104.013064 91.3676194,104.787275 C91.9904084,105.561486 92.3017982,106.669873 92.3017982,108.112468 L92.3017982,108.755784 L86.4492083,108.755784 C86.4705002,109.646962 86.7193459,110.366857 87.1957528,110.915488 C87.6721597,111.46412 88.2776399,111.738432 89.0122115,111.738432 C89.5338638,111.738432 89.9756647,111.627036 90.3376275,111.404242 C90.6995903,111.181447 91.016303,110.886249 91.2877751,110.518638 L92.1900161,111.253856 C91.4660905,112.417958 90.3802184,113 88.9323671,113 Z M88.7487252,104.895887 C88.1525511,104.895887 87.6521983,105.122855 87.2476516,105.576799 C86.843105,106.030743 86.5929286,106.667091 86.4971149,107.485861 L90.8246779,107.485861 L90.8246779,107.368895 C90.7820941,106.583544 90.5798238,105.975045 90.217861,105.54338 C89.8558982,105.111716 89.3661911,104.895887 88.7487252,104.895887 Z M97.4757112,111.738432 C98.0026865,111.738432 98.4631176,111.571338 98.8570183,111.237147 C99.2509189,110.902955 99.469158,110.485221 99.5117418,109.983933 L100.909018,109.983933 C100.882403,110.501931 100.71207,110.994856 100.398014,111.462725 C100.083958,111.930594 99.6647794,112.303769 99.1404656,112.582262 C98.6161519,112.860755 98.0612393,113 97.4757112,113 C96.2993321,113 95.363832,112.589229 94.6691828,111.767674 C93.9745336,110.946118 93.6272142,109.822415 93.6272142,108.39653 L93.6272142,108.137532 C93.6272142,107.257493 93.7815783,106.474939 94.0903113,105.789846 C94.3990443,105.104752 94.8421759,104.572838 95.4197195,104.194087 C95.9972631,103.815337 96.6799254,103.625964 97.4677268,103.625964 C98.4365096,103.625964 99.2415986,103.929517 99.883018,104.536632 C100.524437,105.143748 100.866434,105.931872 100.909018,106.901028 L99.5117418,106.901028 C99.469158,106.316192 99.2575726,105.835799 98.8769793,105.459833 C98.4963861,105.083867 98.0266399,104.895887 97.4677268,104.895887 C96.7171863,104.895887 96.1356592,105.178553 95.723128,105.743895 C95.3105969,106.309236 95.1043344,107.126601 95.1043344,108.196015 L95.1043344,108.488432 C95.1043344,109.529997 95.3092662,110.332045 95.7191358,110.894602 C96.1290054,111.457158 96.7145247,111.738432 97.4757112,111.738432 Z M102.178543,108.229434 C102.178543,107.343826 102.344883,106.547347 102.67757,105.839974 C103.010256,105.132601 103.473349,104.586763 104.066861,104.202442 C104.660374,103.818121 105.337713,103.625964 106.0989,103.625964 C107.275279,103.625964 108.226748,104.052052 108.953335,104.904242 C109.679922,105.756431 110.04321,106.889882 110.04321,108.304627 L110.04321,108.413239 C110.04321,109.293278 109.882192,110.082794 109.560152,110.781812 C109.238111,111.48083 108.77768,112.025277 108.178845,112.415167 C107.580009,112.805058 106.892024,113 106.114868,113 C104.943812,113 103.995005,112.573912 103.268418,111.721722 C102.541831,110.869533 102.178543,109.741652 102.178543,108.338046 L102.178543,108.229434 Z M103.663647,108.413239 C103.663647,109.415815 103.885879,110.220648 104.330348,110.827763 C104.774817,111.434879 105.369651,111.738432 106.114868,111.738432 C106.865409,111.738432 107.461574,111.430701 107.903382,110.815231 C108.345189,110.199761 108.56609,109.337838 108.56609,108.229434 C108.56609,107.237998 108.341197,106.434557 107.891405,105.819087 C107.441613,105.203617 106.844117,104.895887 106.0989,104.895887 C105.369651,104.895887 104.78147,105.19944 104.33434,105.806555 C103.887209,106.413671 103.663647,107.282556 103.663647,108.413239 Z M113.28489,103.793059 L113.324812,104.79563 C113.958247,104.015849 114.812573,103.625964 115.887815,103.625964 C117.096132,103.625964 117.918521,104.110535 118.355005,105.079692 C118.642446,104.645242 119.01638,104.294346 119.476818,104.026992 C119.937256,103.759639 120.481523,103.625964 121.109635,103.625964 C123.004617,103.625964 123.968062,104.675868 124,106.775707 L124,112.832905 L122.52288,112.832905 L122.52288,106.867609 C122.52288,106.221505 122.381823,105.738326 122.099705,105.418059 C121.817587,105.097792 121.343848,104.937661 120.678476,104.937661 C120.130208,104.937661 119.6751,105.108931 119.313137,105.451478 C118.951175,105.794025 118.74092,106.254924 118.682367,106.83419 L118.682367,112.832905 L117.197262,112.832905 L117.197262,106.909383 C117.197262,105.594895 116.582467,104.937661 115.352858,104.937661 C114.384075,104.937661 113.721374,105.369319 113.364734,106.232648 L113.364734,112.832905 L111.887614,112.832905 L111.887614,103.793059 L113.28489,103.793059 Z"
      id="MaximaTelecom"
      fill="#000000"></path>
    <path
      d="M105,69.7450908 C105,67.1674515 103.568192,64.9054415 101.429542,63.6779942 C100.505211,63.1519453 99.3996375,62.8187811 98.3121885,62.7311063 C80.5505211,61.8543582 66.323063,60.1534669 56.5541459,58.6454603 C54.4517444,58.6805302 49.2682374,59.1364392 37.288174,61.5211939 C37.288174,61.5211939 47.7095605,58.6980652 52.4580879,58.0142017 C69.7122791,54.7877688 91.1712732,53.9110207 97.5690983,53.7356711 C101.574536,53.7356711 104.818758,50.5443081 104.818758,46.6515467 C104.818758,44.0739074 103.60444,41.6716177 101.483915,40.4441704 C100.595831,39.9356565 99.3996375,39.6550971 98.2940643,39.5849573 C68.4254644,38.1295555 48.851382,34.271864 43.0154055,33.0093467 C42.2723154,33.0794866 40.3511554,33.3775809 36.1282284,34.6225632 C36.1282284,34.6225632 37.05256,33.8334899 41.1848663,32.5885077 C61.4114182,26.3285265 99.45401,25.5219182 99.45401,25.5219182 C102.462619,25.5219182 104.891255,23.1722334 104.891255,20.2614298 C104.891255,17.1051368 102.64386,14.9483365 99.45401,15.0009414 C99.45401,15.0009414 51.4431355,15.5620602 29.0779338,25.188754 C26.2143181,26.3635964 25.0181242,28.7308162 25.0181242,31.4838051 C25.0181242,34.0614444 26.449932,36.3059195 28.5885818,37.5333668 C30.7091074,38.7608141 37.9587676,43.0919495 53.5455369,44.5999562 C54.0167648,44.5473513 54.5423652,44.5122814 55.1585863,44.4596765 C84.7371998,42.0398519 91.8418668,42.2678064 92.0049841,42.408086 C92.0774807,42.4606909 92.0593566,42.5659007 91.9143634,42.5659007 C86.2958768,42.3730161 65.1449932,44.0037675 55.5391935,44.7928408 C45.2084277,45.9326133 35.0226552,47.7387143 28.3892161,50.614448 C25.7974626,51.8243603 25,53.8759508 25,56.4535901 C25,58.294761 25.5618487,60.1534669 26.7580426,61.4159842 L26.7761667,61.4335191 C29.8572723,64.6424171 38.2668781,67.7285703 57.4784776,69.8503006 C70.9265972,68.2020142 96.0285455,67.1849865 96.5360217,67.4830808 C96.6085184,67.5006158 96.6085184,67.6584304 96.4635251,67.6584304 C90.3556865,67.6408954 67.9904848,69.3067168 58.7471681,70.0081152 C48.5251473,71.0952828 37.650657,72.848779 28.7698233,75.6193029 C26.5768011,76.3031664 25,78.3196869 25,80.6869067 C25,83.6152453 27.4286362,86 30.4372451,86 C31.4703217,85.982465 31.8871772,85.7895805 32.3221568,85.7019057 C67.1930222,78.3196869 87.0933394,79.2665748 99.4358858,76.6012607 C102.625736,75.8647923 105,73.0767335 105,69.7450908 Z"
      id="Path"
      fill="#000000"></path>
  </g>
  <g id="logo_small">
    <path
      d="M99,58.8055723 C99,56.554676 97.7650657,54.5793996 95.9204803,53.5075442 C95.1232442,53.0481776 94.1696874,52.7572454 93.2317626,52.6806843 C77.9123244,51.9150734 65.6411418,50.429788 57.2154508,49.1129371 C55.4021296,49.1435616 50.9313548,49.5416793 40.5985501,51.6241412 C40.5985501,51.6241412 49.5869959,49.1588738 53.6826008,48.5616972 C68.5643407,45.7442488 87.0727232,44.9786378 92.5908473,44.8255156 C96.0455369,44.8255156 98.8436792,42.0386916 98.8436792,38.6393788 C98.8436792,36.3884825 97.7963299,34.2907084 95.9673765,33.218853 C95.2014046,32.7747986 94.1696874,32.5298031 93.2161305,32.4685542 C67.4544631,31.19764 50.5718169,27.8289516 45.5382873,26.7264718 C44.897372,26.7877207 43.2403715,27.0480284 39.598097,28.135196 C39.598097,28.135196 40.395333,27.4461461 43.9594472,26.3589785 C61.4048482,20.8925161 94.2165836,20.188154 94.2165836,20.188154 C96.8115088,20.188154 98.9062075,18.1363165 98.9062075,15.594488 C98.9062075,12.8382885 96.9678296,10.9548854 94.2165836,11.0008221 C94.2165836,11.0008221 52.8072043,11.4908131 33.5172179,19.8972218 C31.0473493,20.9231405 30.0156321,22.9902902 30.0156321,25.3943087 C30.0156321,27.645205 31.2505664,29.6051691 33.0951518,30.6770245 C34.9241051,31.7488799 41.176937,35.5309982 54.6205256,36.8478491 C55.0269597,36.8019124 55.48029,36.771288 56.0117807,36.7253513 C81.5233348,34.612265 87.6511101,34.8113239 87.7917988,34.9338216 C87.8543271,34.9797583 87.8386951,35.0716316 87.7136384,35.0716316 C82.8676937,34.9031972 64.6250566,36.3272336 56.3400544,37.0162835 C47.4297689,38.0115778 38.6445401,39.5887364 32.9231989,42.0999405 C30.6878115,43.1564836 30,44.9480134 30,47.1989097 C30,48.8066927 30.4845945,50.429788 31.5163117,51.5322679 L31.5319438,51.5475801 C34.1893974,54.3497163 41.4426824,57.044667 58.0126869,58.8974456 C69.6116901,57.4580969 91.2621205,56.5699882 91.6998188,56.8302959 C91.7623471,56.8456081 91.7623471,56.9834181 91.6372904,56.9834181 C86.3692796,56.9681059 67.0792932,58.4227668 59.1069325,59.0352556 C50.2904395,59.9846132 40.9111917,61.5158352 33.2514726,63.9351659 C31.3599909,64.5323425 30,66.2932477 30,68.3603974 C30,70.9175381 32.0946987,73 34.6896239,73 C35.5806525,72.9846878 35.9401903,72.8162534 36.3153602,72.7396923 C66.3914816,66.2932477 83.5555052,67.1201076 94.2009515,64.7926502 C96.9521976,64.149537 99,61.714894 99,58.8055723 Z"
      id="Path"
      fill="#000000"></path>
    <path
      d="M44.5942233,89 L51.8397323,109.307692 L59.0464952,89 L66.6794646,89 L66.6794646,117 L60.848186,117 L60.848186,109.346154 L61.4293765,96.1346154 L53.8157802,117 L49.8249384,117 L42.230715,96.1538462 L42.8119056,109.346154 L42.8119056,117 L37,117 L37,89 L44.5942233,89 Z M92,92.0384615 L82.9334273,92.0384615 L82.9334273,117 L79.2331807,117 L79.2331807,92.0384615 L70.185981,92.0384615 L70.185981,89 L92,89 L92,92.0384615 Z"
      id="MT"
      fill="#000000"></path>
  </g>
  <g id="logo_smallest">
    <path
      d="M125,94.0452803 C125,90.0880593 122.834391,86.6153961 119.599683,84.7310051 C118.201631,83.923409 116.529452,83.4119315 114.884685,83.2773322 C88.0201631,81.9313386 66.5011328,79.3201112 51.7256457,77.0050024 C48.5457635,77.0588421 40.7057091,77.7587587 22.5858632,81.4198611 C22.5858632,81.4198611 38.3482102,77.085762 45.530358,76.0358871 C71.6273222,71.0826309 104.084051,69.7366374 113.760761,69.4674387 C119.818985,69.4674387 124.725872,64.5680223 124.725872,58.5918111 C124.725872,54.6345902 122.889216,50.946568 119.681921,49.062177 C118.338695,48.2815008 116.529452,47.8507829 114.857272,47.7431034 C69.681015,45.5087542 40.0752152,39.5863827 31.2483009,37.6481521 C30.124377,37.7558315 27.2186226,38.2134693 20.8314454,40.1247801 C20.8314454,40.1247801 22.2294971,38.913386 28.4796103,37.0020752 C59.07227,27.3916815 116.61169,26.1533674 116.61169,26.1533674 C121.162211,26.1533674 124.835523,22.5461048 124.835523,18.0774064 C124.835523,13.2318297 121.436339,9.92068567 116.61169,10.0014453 C116.61169,10.0014453 43.9952424,10.8628811 10.1678749,25.6418899 C5.83665609,27.4455212 4.02741278,31.0797037 4.02741278,35.3061233 C4.02741278,39.2633443 6.1930222,42.7090877 9.42772995,44.5934786 C12.6350249,46.4778695 23.6001359,53.1270775 47.1751246,55.4421863 C47.8878568,55.3614267 48.6828274,55.3075869 49.6148618,55.2268273 C94.3525147,51.5118852 105.098324,51.8618436 105.345039,52.0772025 C105.45469,52.1579621 105.427277,52.3194813 105.207975,52.3194813 C96.7100136,52.0233628 64.7193022,54.5269107 50.1905301,55.7383049 C34.5652469,57.4880964 19.159266,60.2608431 9.1261894,64.6757018 C5.20616221,66.5331728 4,69.6827977 4,73.6400186 C4,76.466605 4.8497961,79.3201112 6.65903942,81.2583419 L6.6864522,81.2852618 C11.3466244,86.211598 24.0661531,90.9494952 53.1236973,94.2067995 C73.4639783,91.6763317 111.430675,90.1149792 112.198233,90.572617 C112.307884,90.5995369 112.307884,90.8418157 112.088582,90.8418157 C102.850476,90.8148958 69.0231083,93.3722835 55.0425918,94.4490783 C39.5817852,96.1181103 23.1341187,98.8100973 9.70185773,103.063437 C6.38491164,104.113312 4,107.209097 4,110.843279 C4,115.338898 7.67331219,119 12.2238333,119 C13.7863616,118.97308 14.4168555,118.676962 15.0747621,118.542362 C67.8169461,107.209097 97.9161758,108.66277 116.584277,104.57095 C121.408926,103.440315 125,99.1600556 125,94.0452803 Z"
      id="Path"
      fill="#000000"></path>
  </g>

</svg>
